<?xml version="1.0" encoding="UTF-8" standalone="no"?>
<!-- Created with Inkscape (http://www.inkscape.org/) -->

<svg
   xmlns:dc="http://purl.org/dc/elements/1.1/"
   xmlns:cc="http://creativecommons.org/ns#"
   xmlns:rdf="http://www.w3.org/1999/02/22-rdf-syntax-ns#"
   xmlns:svg="http://www.w3.org/2000/svg"
   xmlns="http://www.w3.org/2000/svg"
   xmlns:sodipodi="http://sodipodi.sourceforge.net/DTD/sodipodi-0.dtd"
   xmlns:inkscape="http://www.inkscape.org/namespaces/inkscape"
   width="1000"
   height="400"
   id="svg2"
   version="1.1"
   inkscape:version="0.91 r13725"
   sodipodi:docname="CPT-OOP-objects_and_classes.svg.2016_10_05_13_08_41.0.svg">
  <defs
     id="defs4">
    <marker
       inkscape:stockid="Arrow1Mend"
       orient="auto"
       refY="0"
       refX="0"
       id="Arrow1Mend"
       style="overflow:visible"
       inkscape:isstock="true">
      <path
         id="path4170"
         d="M 0,0 5,-5 -12.5,0 5,5 0,0 Z"
         style="fill:#000000;fill-opacity:1;fill-rule:evenodd;stroke:#000000;stroke-width:1pt;stroke-opacity:1"
         transform="matrix(-0.4,0,0,-0.4,-4,0)"
         inkscape:connector-curvature="0" />
    </marker>
    <marker
       inkscape:stockid="Arrow1Lend"
       orient="auto"
       refY="0"
       refX="0"
       id="Arrow1Lend"
       style="overflow:visible"
       inkscape:isstock="true">
      <path
         id="path4164"
         d="M 0,0 5,-5 -12.5,0 5,5 0,0 Z"
         style="fill:#000000;fill-opacity:1;fill-rule:evenodd;stroke:#000000;stroke-width:1pt;stroke-opacity:1"
         transform="matrix(-0.8,0,0,-0.8,-10,0)"
         inkscape:connector-curvature="0" />
    </marker>
    <marker
       inkscape:stockid="Arrow1Mend"
       orient="auto"
       refY="0"
       refX="0"
       id="Arrow1Mend-2"
       style="overflow:visible"
       inkscape:isstock="true">
      <path
         inkscape:connector-curvature="0"
         id="path4170-9"
         d="M 0,0 5,-5 -12.5,0 5,5 0,0 Z"
         style="fill:#000000;fill-opacity:1;fill-rule:evenodd;stroke:#000000;stroke-width:1pt;stroke-opacity:1"
         transform="matrix(-0.4,0,0,-0.4,-4,0)" />
    </marker>
    <marker
       inkscape:stockid="Arrow1Mend"
       orient="auto"
       refY="0"
       refX="0"
       id="Arrow1Mend-2-4"
       style="overflow:visible"
       inkscape:isstock="true">
      <path
         inkscape:connector-curvature="0"
         id="path4170-9-1"
         d="M 0,0 5,-5 -12.5,0 5,5 0,0 Z"
         style="fill:#000000;fill-opacity:1;fill-rule:evenodd;stroke:#000000;stroke-width:1pt;stroke-opacity:1"
         transform="matrix(-0.4,0,0,-0.4,-4,0)" />
    </marker>
  </defs>
  <sodipodi:namedview
     id="base"
     pagecolor="#ffffff"
     bordercolor="#666666"
     borderopacity="1.0"
     inkscape:pageopacity="0.0"
     inkscape:pageshadow="2"
     inkscape:zoom="0.70000001"
     inkscape:cx="486.18114"
     inkscape:cy="265.97571"
     inkscape:document-units="px"
     inkscape:current-layer="layer1"
     showgrid="false"
     fit-margin-top="10"
     fit-margin-left="100"
     fit-margin-right="110"
     fit-margin-bottom="10"
     inkscape:window-width="1366"
     inkscape:window-height="705"
     inkscape:window-x="-8"
     inkscape:window-y="-8"
     inkscape:window-maximized="1"
     showguides="true"
     inkscape:guide-bbox="true"
     inkscape:snap-bbox="true"
     inkscape:bbox-paths="true"
     inkscape:object-nodes="false"
     inkscape:snap-nodes="false">
    <sodipodi:guide
       position="240.36985,313.36477"
       orientation="0,1"
       id="guide7027" />
    <sodipodi:guide
       position="277.40086,299.32405"
       orientation="0,1"
       id="guide7029" />
    <sodipodi:guide
       position="277.40086,348.43201"
       orientation="0,1"
       id="guide7031" />
    <sodipodi:guide
       position="323.02024,362.32541"
       orientation="0,1"
       id="guide7033" />
    <sodipodi:guide
       position="267.31067,337.57671"
       orientation="1,0"
       id="guide7183" />
    <sodipodi:guide
       position="225.6003,352.4429"
       orientation="1,0"
       id="guide7539" />
    <sodipodi:guide
       position="267.31067,278.54712"
       orientation="0,1"
       id="guide7541" />
    <sodipodi:guide
       position="267.31067,375.91535"
       orientation="0,1"
       id="guide7573" />
  </sodipodi:namedview>
  <metadata
     id="metadata7">
    <rdf:RDF>
      <cc:Work
         rdf:about="">
        <dc:format>image/svg+xml</dc:format>
        <dc:type
           rdf:resource="http://purl.org/dc/dcmitype/StillImage" />
        <dc:title></dc:title>
        <cc:license
           rdf:resource="http://creativecommons.org/licenses/by-sa/3.0/" />
      </cc:Work>
      <cc:License
         rdf:about="http://creativecommons.org/licenses/by-sa/3.0/">
        <cc:permits
           rdf:resource="http://creativecommons.org/ns#Reproduction" />
        <cc:permits
           rdf:resource="http://creativecommons.org/ns#Distribution" />
        <cc:requires
           rdf:resource="http://creativecommons.org/ns#Notice" />
        <cc:requires
           rdf:resource="http://creativecommons.org/ns#Attribution" />
        <cc:permits
           rdf:resource="http://creativecommons.org/ns#DerivativeWorks" />
        <cc:requires
           rdf:resource="http://creativecommons.org/ns#ShareAlike" />
      </cc:License>
    </rdf:RDF>
  </metadata>
  <g
     inkscape:label="Layer 1"
     inkscape:groupmode="layer"
     id="layer1"
     transform="translate(71.376069,-180.64022)">
    <g
       id="g7035"
       transform="matrix(2.95938,0,0,2.8137846,106.02723,-322.2867)">
      <path
         sodipodi:nodetypes="ccccccccccccccccc"
         inkscape:connector-curvature="0"
         id="path2985-7"
         d="m 149.50258,213.54562 14.58798,0 3.92753,4.76915 6.7329,0 3.647,-4.76915 33.66456,0 3.36645,4.76915 5.33022,0 3.36646,-4.76915 15.71012,0 0,-15.71012 -24.12626,0 -10.66044,-14.58798 -33.10348,0 -7.55168,13.07991 -14.33028,0 z"
         style="fill:#00ff00;stroke:#000000;stroke-width:1.91352999;stroke-linecap:butt;stroke-linejoin:miter;stroke-miterlimit:4;stroke-dasharray:none;stroke-dashoffset:0;stroke-opacity:1" />
      <path
         style="fill:#00ffff;stroke:#000000;stroke-width:1.91352999;stroke-linecap:butt;stroke-linejoin:miter;stroke-miterlimit:4;stroke-dasharray:none;stroke-dashoffset:0;stroke-opacity:1"
         d="m 149.50258,262.50631 14.58798,0 3.92753,4.76915 6.7329,0 3.647,-4.76915 33.66456,0 3.36645,4.76915 5.33022,0 3.36646,-4.76915 15.71012,0 0,-15.71012 -24.12626,0 -10.66044,-14.58797 -33.10348,0 -7.55168,13.0799 -14.33028,0 z"
         id="path3779"
         inkscape:connector-curvature="0"
         sodipodi:nodetypes="ccccccccccccccccc" />
      <path
         sodipodi:nodetypes="ccccccccccccccccc"
         inkscape:connector-curvature="0"
         id="path3781"
         d="m 149.50258,311.61428 14.58798,0 3.92753,4.76914 6.7329,0 3.647,-4.76914 33.66456,0 3.36645,4.76914 5.33022,0 3.36646,-4.76914 15.71012,0 0,-15.71012 -24.12626,0 -10.66044,-14.58798 -33.10348,0 -7.55168,13.0799 -14.33028,0 z"
         style="fill:#ff0000;stroke:#000000;stroke-width:1.91352999;stroke-linecap:butt;stroke-linejoin:miter;stroke-miterlimit:4;stroke-dasharray:none;stroke-dashoffset:0;stroke-opacity:1" />
    </g>
    <path
       style="fill:none;stroke:#000000;stroke-width:5.52181196;stroke-linecap:butt;stroke-linejoin:miter;stroke-miterlimit:4;stroke-dasharray:22.08724684, 11.04362342;stroke-dashoffset:0;stroke-opacity:1"
       d="m 31.481081,416.34947 43.171352,0 11.623057,13.41937 19.92525,0 10.79283,-13.41937 99.62623,0 9.96259,13.41937 15.77416,0 9.96262,-13.41937 46.49222,0 0,-44.20489 -71.39878,0 -31.54829,-41.04739 -97.965773,0 -22.348299,36.804 -42.40873,0 z"
       id="path2985"
       inkscape:connector-curvature="0"
       sodipodi:nodetypes="ccccccccccccccccc" />
    <g
       id="g7052"
       transform="matrix(2.95938,0,0,2.8137846,82.111823,-322.2867)">
      <path
         sodipodi:nodetypes="cc"
         inkscape:connector-curvature="0"
         id="path3355"
         d="m 83.903043,254.71104 c 39.285717,0.17857 22.338937,-49.98621 64.049307,-49.98621"
         style="fill:none;fill-rule:evenodd;stroke:#000000;stroke-width:1px;stroke-linecap:butt;stroke-linejoin:miter;stroke-opacity:1;marker-end:url(#Arrow1Mend)" />
      <path
         sodipodi:nodetypes="cc"
         inkscape:connector-curvature="0"
         id="path3355-6"
         d="m 83.906407,254.72507 64.045943,0.26888"
         style="fill:none;fill-rule:evenodd;stroke:#000000;stroke-width:1px;stroke-linecap:butt;stroke-linejoin:miter;stroke-opacity:1;marker-end:url(#Arrow1Mend-2)" />
      <path
         sodipodi:nodetypes="cc"
         inkscape:connector-curvature="0"
         id="path3355-6-1"
         d="m 83.906407,254.72507 c 39.329043,0.29932 22.335573,47.36804 64.045943,47.36804"
         style="fill:none;fill-rule:evenodd;stroke:#000000;stroke-width:1px;stroke-linecap:butt;stroke-linejoin:miter;stroke-opacity:1;marker-end:url(#Arrow1Mend-2-4)" />
    </g>
  </g>
</svg>
